<svg xmlns="http://www.w3.org/2000/svg" xmlns:xlink="http://www.w3.org/1999/xlink" width="24" height="24" viewBox="0 0 24 24">
    <defs>
        <path id="a" d="M9.5 5v11.5c0 2.21-1.79 4-4 4s-4-1.79-4-4V4a2.5 2.5 0 0 1 5 0v10.5c0 .55-.45 1-1 1s-1-.45-1-1V5H3v9.5a2.5 2.5 0 0 0 5 0V4c0-2.21-1.79-4-4-4S0 1.79 0 4v12.5C0 19.54 2.46 22 5.5 22s5.5-2.46 5.5-5.5V5H9.5z"/>
        <path id="c" d="M0 0h50v50H0z"/>
    </defs>
    <g fill="none" fill-rule="evenodd" transform="translate(7 1)">
        <mask id="b" fill="#fff">
            <use xlink:href="#a"/>
        </mask>
        <g mask="url(#b)">
            <use fill="#F56C6C" transform="translate(-20 -14)" xlink:href="#c"/>
        </g>
    </g>
</svg>
