<svg xmlns="http://www.w3.org/2000/svg" xmlns:xlink="http://www.w3.org/1999/xlink" width="24" height="24" viewBox="0 0 24 24">
    <defs>
        <path id="a" d="M1.9 5c0-1.71 1.39-3.1 3.1-3.1h4V0H5C2.24 0 0 2.24 0 5s2.24 5 5 5h4V8.1H5C3.29 8.1 1.9 6.71 1.9 5zM6 6h8V4H6v2zm9-6h-4v1.9h4c1.71 0 3.1 1.39 3.1 3.1 0 1.71-1.39 3.1-3.1 3.1h-4V10h4c2.76 0 5-2.24 5-5s-2.24-5-5-5z"/>
        <path id="c" d="M0 0h50v50H0z"/>
    </defs>
    <g fill="none" fill-rule="evenodd" transform="translate(2 7)">
        <mask id="b" fill="#fff">
            <use xlink:href="#a"/>
        </mask>
        <g mask="url(#b)">
            <use fill="#F56C6C" transform="translate(-15 -20)" xlink:href="#c"/>
        </g>
    </g>
</svg>
