<svg xmlns="http://www.w3.org/2000/svg" xmlns:xlink="http://www.w3.org/1999/xlink" width="24" height="22" viewBox="0 0 24 22">
    <defs>
        <path id="a" d="M6.23 6.167c1.7 0 3.078-1.368 3.078-3.056A3.065 3.065 0 0 0 6.23.056 3.065 3.065 0 0 0 3.154 3.11 3.065 3.065 0 0 0 6.23 6.167zm0 1.527C4.178 7.694.078 8.718.078 10.75v1.528h12.308V10.75c0-2.032-4.1-3.056-6.154-3.056z"/>
        <path id="c" d="M0 0h38.462v38.194H0z"/>
        <path id="d" d="M4.538.833l-.65.647 2.575 2.562H.846v.916h5.617L3.888 7.52l.65.647L8.231 4.5z"/>
        <path id="f" d="M0 0h23.077v22.917H0z"/>
    </defs>
    <g fill="none" fill-rule="evenodd">
        <g transform="translate(3 3)">
            <mask id="b" fill="#fff">
                <use xlink:href="#a"/>
            </mask>
            <g mask="url(#b)">
                <use fill="#757575" transform="translate(-13 -12.93)" xlink:href="#c"/>
            </g>
        </g>
        <g transform="matrix(-1 0 0 1 23 12)">
            <mask id="e" fill="#fff">
                <use xlink:href="#d"/>
            </mask>
            <g mask="url(#e)">
                <use fill="#757575" transform="translate(-7 -6.958)" xlink:href="#f"/>
            </g>
        </g>
    </g>
</svg>
