<svg xmlns="http://www.w3.org/2000/svg" xmlns:xlink="http://www.w3.org/1999/xlink" width="1440" height="1028" viewBox="0 0 1440 1028">
    <defs>
        <linearGradient id="a" x1="0%" y1="75.482%" y2="24.518%">
            <stop offset="0%" stop-color="#00BCD4"/>
            <stop offset="44.174%" stop-color="#06B5DA"/>
            <stop offset="100%" stop-color="#2196F3"/>
        </linearGradient>
        <path id="b" d="M0 0h1440v1028H0z"/>
        <path id="d" d="M0 0h1499v381H0z"/>
        <path id="f" d="M0 0h1456v381H0z"/>
        <path id="h" d="M0 0h1448v381H0z"/>
        <path id="j" d="M0 0h1448v307H0z"/>
    </defs>
    <g fill="none" fill-rule="evenodd">
        <path fill="url(#a)" d="M0 0h1440v1028H0z"/>
        <g>
            <mask id="c" fill="#fff">
                <use xlink:href="#b"/>
            </mask>
            <use fill="url(#a)" xlink:href="#b"/>
            <g mask="url(#c)" opacity=".4">
                <g transform="rotate(180 732.5 140)">
                    <mask id="e" fill="#fff">
                        <use xlink:href="#d"/>
                    </mask>
                    <path fill="#FFF" d="M.556 285.083c-1.427-.003.343 9.19.343 33.265v-33.135c-.13-.087-.244-.13-.343-.13M1183.436 0c-5.152 0-10.38.107-15.657.324-224.498 9.233-694.042 306.023-922.268 308.023-.777.007-1.534.01-2.31.01C89.337 308.357.9 173.337.9 173.337v111.876c5.604 3.692 42.236 84.55 238.76 95.14a460.17 460.17 0 0 0 24.754.647c254.394 0 649.146-193.146 874.05-193.14 6.398 0 12.668.156 18.783.478C1458.809 204.196 1499 270.345 1499 270.345v-97.008S1392.008-.006 1183.436 0m.013 1c47.376 0 93.38 9.074 136.736 26.968 34.705 14.324 67.803 34.302 98.379 59.378 50.204 41.174 77.134 82.876 79.266 86.242v93.485c-4.965-5.535-19.538-18.5-56.137-32.696-27.797-10.782-62.646-20.039-103.582-27.513-51.123-9.336-111.95-15.904-180.794-19.524a360.204 360.204 0 0 0-18.854-.48c-109.194-.003-256.148 44.769-411.73 92.17C563.8 328.668 395.32 380 264.413 380a461.01 461.01 0 0 1-24.68-.645c-74.01-3.988-133.964-18.37-178.194-42.747-35.266-19.438-50.155-39.537-56.513-48.12-1.469-1.983-2.3-3.09-2.956-3.702V176.98c6.57 9.197 27.744 37.05 61.472 64.59 24.09 19.668 49.784 35.342 76.37 46.586 33.26 14.068 68.013 21.2 103.29 21.2.778 0 1.54-.002 2.32-.01 28.174-.246 60.482-4.849 98.772-14.07 34.04-8.197 72.049-19.882 116.202-35.72 81.922-29.388 172.722-68.86 260.533-107.031C804.25 116.349 890.305 78.94 967.173 50.914c85.991-31.354 151.628-47.575 200.662-49.59A380.615 380.615 0 0 1 1183.443 1h.006" mask="url(#e)"/>
                </g>
                <g transform="rotate(180 720.5 520.5)">
                    <mask id="g" fill="#fff">
                        <use xlink:href="#f"/>
                    </mask>
                    <path fill="#FFF" d="M.54 285.083c-1.386-.003.334 9.19.334 33.265v-33.135c-.128-.087-.238-.13-.333-.13M1149.488 0c-5.004 0-10.081.107-15.207.324-218.059 9.233-674.133 306.023-895.813 308.023-.754.007-1.49.01-2.242.01C86.774 308.357.874 173.337.874 173.337v111.876c5.443 3.692 41.024 84.55 231.91 95.14a434.18 434.18 0 0 0 24.044.647c247.096 0 630.525-193.146 848.978-193.14 6.213 0 12.303.156 18.243.478C1416.962 204.196 1456 270.345 1456 270.345v-97.008S1352.077-.006 1149.488 0m.012 1c46.018 0 90.702 9.074 132.815 26.968 33.709 14.324 65.858 34.302 95.556 59.378 48.764 41.174 74.922 82.876 76.992 86.242v93.485c-4.822-5.535-18.977-18.5-54.526-32.696-27-10.782-60.85-20.039-100.61-27.513-49.657-9.336-108.74-15.904-175.608-19.524-5.881-.319-12.043-.48-18.313-.48-106.062-.003-248.8 44.769-399.92 92.17C547.627 328.668 383.98 380 256.828 380c-8.192 0-16.256-.217-23.972-.645-71.888-3.988-130.121-18.37-173.083-42.747-34.253-19.438-48.716-39.537-54.891-48.12-1.427-1.983-2.234-3.09-2.872-3.702V176.98c6.381 9.197 26.949 37.05 59.71 64.59 23.399 19.668 48.355 35.342 74.178 46.586 32.307 14.068 66.063 21.2 100.328 21.2.755 0 1.496-.002 2.254-.01 27.365-.246 58.746-4.849 95.938-14.07 33.063-8.197 69.981-19.882 112.868-35.72 79.573-29.388 167.768-68.86 253.06-107.031 80.833-36.177 164.42-73.586 239.083-101.612 83.524-31.354 147.278-47.575 194.906-49.59a359.108 359.108 0 0 1 15.16-.324h.005" mask="url(#g)"/>
                </g>
            </g>
            <g mask="url(#c)" opacity=".7">
                <g opacity=".05" transform="translate(-8 591)">
                    <mask id="i" fill="#fff">
                        <use xlink:href="#h"/>
                    </mask>
                    <path fill="#FFF" d="M1448 270.344s-38.824-66.149-330.127-82.006c-220.461-12.001-635.381 206.016-886.368 192.015C-26.89 365.939.868 221.341.868 318.348V173.337s86.272 136.371 236.29 135.01c220.461-2 674.03-298.791 890.89-308.024C1339.465-8.677 1448 173.337 1448 173.337v97.007z" mask="url(#i)"/>
                </g>
                <g opacity=".1" transform="translate(-8 655)">
                    <mask id="k" fill="#fff">
                        <use xlink:href="#j"/>
                    </mask>
                    <path fill="#FFF" d="M1448 223.825s-38.824-74.574-330.127-92.45c-220.461-13.53-635.381 190.538-886.368 174.754C-26.89 289.879.868 168.58.868 277.942v-163.48S81.487 307.664 231.505 306.13c220.461-2.255 693.25-295.13 910.11-305.539C1353.032-9.557 1448 114.463 1448 114.463v109.362z" mask="url(#k)"/>
                </g>
            </g>
        </g>
    </g>
</svg>
