<svg xmlns="http://www.w3.org/2000/svg" width="62" height="54" viewBox="0 0 62 54">
    <path fill="#FFF" fill-rule="nonzero" d="M61.594 6.596c-2.22 2.234-2.22 5.866 0 8.099a5.646 5.646 0 0 0 4.018 1.669c1.458 0 2.919-.56 4.031-1.676 2.22-2.234 2.224-5.863.008-8.091a5.684 5.684 0 0 0-8.057 0zm6.315 6.349a3.234 3.234 0 0 1-4.582.007 3.279 3.279 0 0 1 0-4.613 3.232 3.232 0 0 1 2.296-.954c.831 0 1.662.318 2.295.954a3.276 3.276 0 0 1-.009 4.606zm5.352-9.962A10.694 10.694 0 0 0 65.631-.2c-2.88 0-5.59 1.13-7.631 3.182-2.998 3.013-3.943 7.532-2.477 11.49l-26.867 27.01c-4.407 4.432-11.582 4.434-15.994 0-4.405-4.429-4.401-11.638.008-16.07l2.14-2.151 4.956 5.876 1.342-23.97L6.82 19.53c-8.545 8.592-8.551 19.26-.015 27.842 4.184 4.207 8.971 6.43 13.844 6.43h.007c4.874-.003 9.665-2.23 13.852-6.438l26.685-26.825c4.03 1.816 8.865.958 12.046-2.238a10.823 10.823 0 0 0 3.168-7.668 10.752 10.752 0 0 0-3.145-7.65z" opacity=".4"/>
</svg>
